<svg id="Camada_1" xmlns="http://www.w3.org/2000/svg" viewBox="0 0 327.4 76.6"><style>.st0{fill:#fff}</style><path class="st0" d="M116 38.5c.3.2.5.4.8.6-.6 1.1-1.2 2.2-1.7 3.2-.4.7-.7 1.4-1.1 2-1.1 1.9-2.7 3.4-4.6 4.5-1.9 1.1-3.9 1.7-6.1 1.5-1.6-.1-3.2-.5-4.4-1.5-1-.8-1.6-2-2-3.2-.2-.7-.4-1.4-.6-2.2-.3.6-.7 1.2-1.1 1.8-1 1.5-2.3 2.7-3.9 3.6-1 .6-2.1 1.1-3.3 1.4-1.9.4-3.7.3-5.5-.4-.7-.3-1.5-.5-2.1-1.1-.9-.8-1.5-1.9-1.9-3.1-.2-.8-.4-1.6-.7-2.5 0 0-.1.1-.2.1-.8 1-1.7 2-2.5 3.1-.4.5-.7 1-1.1 1.5-1.4 2-2.9 3.8-5.1 4.9-.8.4-.7.4-.7 1.3s-.1 1.8-.2 2.8c-.1 1.7-.3 3.3-.4 5-.1 2.8-.5 5.6-1.3 8.4-.3 1.1-.7 2.3-1.4 3.3-.5.7-1.1 1.3-1.7 2-.2.2-.4.2-.6.3-.5.2-1 .5-1.6.7-.3.1-.7.2-1.1.2-.8-.1-1.7-.2-2.5-.4-1-.4-2.1-.9-2.4-2.1-.2-.6-.5-1.3-.6-1.9-.1-.9-.1-1.9 0-2.8.1-1.2.4-2.4.7-3.6.2-.8.5-1.6.9-2.3 1-1.9 2.2-3.7 3.8-5.2.6-.5 1.3-1 1.9-1.5.6-.5 1.3-1 1.9-1.5.2-.1.3-.4.3-.6v-5.1c0-1.7.1-3.3.2-5 0-1 .1-2.1.2-3.1 0-.8 0-1.6.1-2.4 0-.5.1-1 .1-1.5-.3 1-1.2 1.5-1.9 2.2-.5.5-1 .7-1.7.5-.6-.2-1.2-.3-1.7-.5-1-.5-1.4-1.4-1.6-2.5l-1.5.9c-1.6 1-4.4 2-6.1 2.9-1 .5-2.2.7-3.3 1.1-.2.1-.5.2-.6.4-.7 1.3-1.4 2.7-2.5 3.8-.9.9-1.6 2-2.5 2.9-.4.4-1 .8-1.6 1-1.1.2-2.1-.5-2.4-1.7-.3-.8-.4-1.7-.4-2.6 0-1.6.2-3.2.2-4.8 0-.2-.1-.4-.2-.5-2.8-2.2-3.6-5.2-3.1-8.6.2-1.4.6-2.9 1.2-4.2.5-1.1 1.3-2.1 2.4-2.8.7-.4 1.3-1 2-1.2 1.5-.3 3.1-.5 4.7-.2 1.4.3 2.2 1.2 3 2.2 1.2 1.5 1.7 3.2 1.7 5.1 0 1.8-.1 3.7-.3 5.5-.2 1.6-.8 3.2-1.2 4.8.6-.2 1.3-.4 1.9-.7 2-.8 5.1-1.9 6.8-3.2.5-.4 1-.7 1.5-1.1.1-.1.2-.3.2-.4 0-1-.1-1.9-.1-2.9 0-.8.1-1.6.2-2.3.1-.6.1-1.3.3-1.9.1-.4.5-.6.8-.4.5.4 1 .4 1.6.5 1 .3 1.1.3 1 1.4-.1 1.8-.2 3.6-.3 5.3 0 .8.1 1.7.2 2.5 0 .3.2.5.3.8.4.6.9.6 1.4 0 .8-1 1.6-2 2-3.1.2-.5.2-1 .3-1.5l.3-2.7c0-.4.3-.6.6-.6.7-.1 1.5-.2 2.2-.2.3 0 .7 0 .8.2.2.2.3.6.3 1-.1 1.7-.3 3.3-.4 5-.1 1.3-.1 2.7-.1 4-.1 2.4-.1 4.8-.2 7.2v4.2c1.1-.5 1.9-1.1 2.5-1.9 1-1.1 1.9-2.3 2.8-3.5.8-1 1.7-2 2.5-3L78 42c.1-.2.2-.6.2-.9-.1-1.7.5-3.2.7-4.9.1-.5.4-1 .6-1.4.5-.9 1.1-1.7 1.7-2.5.5-.6 1-1.1 1.6-1.6.6-.5 1.2-.9 1.9-1.2.4-.2 1-.2 1.5-.2.9 0 1.7.1 2.6.2.2 0 .4.3.6.5.8.8 1.1 1.8 1.4 2.9.4 1.2 0 2.2-.3 3.4-.4-.1-.7-.2-1-.2.5-1.1.5-2.2.3-3.3-.1-.3-.3-.6-.5-.9-.1-.2-.3-.4-.5-.6-.2-.2-.5-.6-.7-.7-.6-.1-1.3 0-1.8.4l-1.2.9c-.2.1-.3.3-.4.5-.9 1.5-1.3 3.1-1.7 4.7-.3 1.7-.6 3.4-.4 5.1.1 1-.3 2 .1 3 .2.5.5 1 .7 1.5 0 .1.1.2.2.3.4 1.3 1.6 1.8 2.7 2 1.4.2 2.8 0 4.1-.6l1.8-.9c1.6-.9 2.6-2.2 3.4-3.8.2-.5.5-.9.8-1.4.2-.4.4-.8.4-1.2-.1-1.7.5-3.3.7-4.9.1-.5.4-1.1.7-1.5.6-.9 1.2-1.8 1.8-2.6.3-.4.7-.8 1.1-1.1.6-.5 1.3-.9 2-1.4.1-.1.3-.2.4-.2 1.2 0 2.4-.2 3.6 0 1.1.2 1.7.7 2.1 1.6.1.3.2.7.1 1-.1.9 0 1.9-.6 2.7-.6 1-1.2 1.9-1.9 2.9-1.3 1.7-3.2 2.8-5 3.9-.5.3-.9.5-.8 1.3.1.8-.2 1.6.1 2.4.2.5.5 1 .7 1.5 0 .1.1.2.2.3.5 1.4 1.7 1.8 3 2 1.9.2 3.6-.4 5.3-1.4 1.6-.9 2.8-2.2 3.6-3.8.6-1.2 1.4-2.4 2-3.7-.3-.6-.1-1.1.1-1.6zm-78.4-.3c.2-.8.4-1.5.6-2.2.3-1 .8-2 1.1-3.1.2-.6.6-1 1.2-.8.6.2 1.1.2 1.6.1.6-.1 1 .3.8.9-.1.4-.3.8-.4 1.2-.4 1.6-.9 3.2-1.3 4.7-.2.6-.3 1.2-.5 1.8 1.6.5 3.1.5 4.7.3.1 0 .2-.2.3-.3.2-.5.4-1 .5-1.5 1-3 1.3-6.1 1.2-9.2-.1-1.5-.5-2.8-1.4-3.9-1.1-1.4-2.5-2-3.7-1.4-1.2.5-2.3 1.3-3.2 2.3-.8.8-1.1 2-1.4 3.1-.6 2.3-.9 4.7-.4 7.1.1.3.2.5.3.9zm26.4 18c-.4.3-.8.6-1.1.8-2.2 1.5-3.8 3.4-5.2 5.7-.5.8-.9 1.6-1.4 2.4-.1.1-.1.2-.1.3-.2.6-.3 1.3-.5 1.9 0 .1-.1.2-.1.3 0 1.4-.1 2.8-.1 4.2 0 .6.1 1.2.4 1.6.5.6 1.1 1.1 1.8 1.5 1.6 1 4 .1 4.5-1.7.2-.9.5-1.7.6-2.6.3-2.3.7-4.6.9-7 .2-1.6.2-3.2.2-4.8.1-.7.1-1.6.1-2.6zm36.3-15.6c1.8-.7 3.3-1.8 4.5-3 .8-.8 1.6-1.5 2-2.6.4-1 .9-2 .9-3.1 0-.9-.5-1.5-1.4-1.7-1.3-.3-3.1.5-3.7 1.6-.5 1-1 2.1-1.3 3.2-.3.8-.4 1.6-.5 2.3-.2 1.2-.3 2.2-.5 3.3zm-60.5 7.9c.9-.8 1.8-1.5 2.5-2.3.6-.7 1.1-1.5 1.7-2.3.3-.5.7-1 1.1-1.5h-4.7c0 1.9-.9 3.8-.6 6.1zM288 39.3c-.3.4-.8.8-1.1 1.3-.5 1-1.2 1.9-1.7 2.9-.7 1.4-1.5 2.7-2.4 4-.7 1.1-1.2 2.3-2.3 3.2-.3.2-.5.6-.7.9-1.2 1.6-2.9 1.8-4.7 1.5-1.8-.4-2.8-1.7-3.2-3.4-.3-1.2-.3-2.4-.4-3.7-.1-.6-.1-1.1-.2-1.7v-.6c0-1.3 0-2.5-.1-3.8-.7 1-1.3 2-2 3-1 1.4-2.2 2.6-3.6 3.6-2.2 1.5-4.6-.3-4.8-2.4 0-.3-.1-.7-.2-1.2-.2.3-.3.4-.4.6-1.2 2.1-2.8 3.8-4.9 5.1-1.9 1.1-3.9 1.6-6.1 1.4-1.5-.1-3.1-.5-4.3-1.4-1-.8-1.6-2-2.1-3.2-.4-1-.6-2.1-.6-3.2 0-1 0-2.1.1-3.1s.3-1.9.5-2.9c.2-.7.4-1.3.7-2 .7-1.2 1.4-2.4 2.5-3.4.7-.7 1.7-1.2 2.5-1.8.2-.1.4-.1.6-.1h.4c1.1-.3 2.2-.1 3.2.1 1.1.1 2 1.5 1.9 2.5-.1.9-.1 1.8-.5 2.6-.5 1.1-1.3 2-2 3-1.3 1.7-3 2.7-4.8 3.8-.6.3-1.1.6-1 1.5.1.8-.2 1.6.1 2.4.2.5.4 1 .7 1.4 0 .1.1.2.2.3.5 1.4 1.7 1.9 3.1 2 1.9.2 3.5-.5 5.1-1.3 1.7-.9 2.9-2.3 3.7-4 .2-.4.4-.8.6-1.1.6-.7.6-1.6.7-2.5.1-.6.1-1.2.2-1.7.5-1.6.8-3.2 1.6-4.7 1.2-2.1 3.3-2.9 5.6-2.6 1.1.1 1.8 1.1 2.1 2.3.4 1.5-.2 2.7-1.1 3.7-.1.1-.4.1-.7.1 0-.2 0-.4.1-.6.5-.9.9-1.8.9-2.8 0-.4-.3-.9-.6-1.3-.3-.5-1.1-.4-1.7 0-.8.6-1.2 1.5-1.5 2.4-.9 2.3-1.3 4.8-1.8 7.3-.2.9-.2 1.9.1 2.8.3 1.2 1.1 1.5 2.1.7 1.2-.9 2.1-2 3-3.2.7-1 1.3-2 2-3 .2-.3.2-.6.3-.9.1-1.1.2-2.1.2-3.2 0-.8-.1-1.5 0-2.3 0-.5.1-1 .2-1.5.1-1.8.3-3.5.4-5.3 0-.6.2-1.1.2-1.6.1-.7.1-1.4.2-2.1.1-1.4.3-2.8.5-4.3.1-1.2.2-2.3.3-3.5.1-1 .3-2 .4-2.9.2-1.3.3-2.7.5-4 .1-.9.4-1.7.6-2.6.1-.5.3-1 .4-1.6.2-1 .8-1.7 1.6-2.3l.3-.3c.5-.6 1.2-.9 2-.6.7.3 1 .9 1.1 1.7.1.5.2 1 .3 1.6.1.5.2 1.1.2 1.6V8c.1 1.5-.3 2.9-.4 4.3-.1.6-.1 1.2-.2 1.8-.1.5-.1 1-.2 1.5-.1 1-.3 2.1-.4 3.1-.1 1.5-.3 3-.7 4.4-.7 3.1-1.7 6.2-2.9 9.2-.3.8-.2 1.9-.3 2.8-.1 1-.1 2.1-.2 3.1V40c0 1.2-.1 2.4-.1 3.6v.8c0 1 0 2-.1 3-.1 1.3-.1 2.5.3 3.8.3 1.1.7 1.3 1.9 1.1.3-.1.7-.2 1-.5 1.3-1.3 2.6-2.5 3.5-4.1.5-.9 1.2-1.7 1.7-2.6.3-.6.6-1.2.8-1.9.1-.2.2-.4.3-.5l1.5-2.4c.2-.3.2-.7.4-1.1.5-.9 1-1.8 1.5-2.8.3-.7.6-1.4.8-2.2 0-.1-.1-.4-.2-.5-.9-1-1.7-2-2.2-3.2-.7-1.6-.7-3.2-.4-4.9.2-1.1.4-2.3.8-3.4.3-.8.8-1.7 1.4-2.4 1.6-1.7 3.5-1.3 4.6.7.6 1.1.4 2.4.3 3.6-.4 3-1.7 5.6-2.6 8.4 0 .1-.1.2-.1.3-.3.9-.3.9.6 1.3.7.3 1.3.5 2 .8 1.5.6 1.9 1.3 1.8 2.9-.1 1.2-.3 2.3-.4 3.5-.1 1.1-.3 2.1-.4 3.2-.1 1.6-.1 3.1 0 4.7 0 .8.3 1.7.5 2.5.1.4.4.5.8.6 1 .1 1.7-.2 2.4-1 .6-.8 1.4-1.5 2-2.3.6-.8 1.2-1.8 1.7-2.6.3-.5.7-1 1-1.5.3-.5.5-1.1.7-1.6.2-.5.6-1 .8-1.4.6-1.1 1.2-2.3 1.8-3.4.1-.1.1-.4 0-.5-1.4-2.6-1.4-5.3-.7-8.1.4-1.5.9-2.9 2-4 .9-.8 1.9-1.5 3-2.2.4-.3 1-.2 1.6-.2 1 0 2-.2 3.1 0 1.4.3 2.3 1.1 3.2 2.2 1.1 1.5 1.7 3.2 1.6 5 0 1.8-.1 3.6-.3 5.3-.2 1.5-.8 2.9-1.2 4.4 0 .1-.1.3-.1.4 1.6-.4 3.1-1.1 4.5-1.9 1.3-.8 2.6-1.8 3.9-2.7.3-.2.5-.3.8-.4.1 0 .4.1.4.2-.1.3-.1.8-.4 1-1.3.9-2.7 1.6-4 2.5-1.7 1.1-3.5 1.7-5.5 2.2-.2.1-.5.3-.6.5-.7 1.3-1.4 2.6-2.4 3.6-.9.9-1.6 2-2.6 2.9-.4.4-1 .8-1.6 1-1 .2-2-.5-2.4-1.6-.2-.8-.4-1.7-.4-2.5 0-1.6.2-3.2.2-4.8 0-.2-.1-.4-.2-.5-.4-.4-.9-.8-1.3-1.2-.4.7-.7 1.4-1.1 2.1-.3.5-.6 1.1-.9 1.6-.3.5-.5 1-.7 1.5-.2.4-.5.8-.8 1.2-.4.7-.7 1.5-1.2 2.1-.8 1.1-1.2 2.3-2.3 3.2-.4.3-.6.9-.9 1.3-.2.3-.5.6-.8.7-1 .5-2.1.8-3.3.6-2.1-.3-3.2-1.7-3.7-3.7-.3-1.2-.4-2.5-.4-3.8 0-1.5.1-3 .2-4.5.1-1.6.3-3.1.5-4.6.1-.8-.1-1.3-.8-1.6-.2-.1-.3-.2-.4-.2-.4.9-.8 1.8-1.2 2.6-.2.4-.4.7-.6 1.1.1.1.2.3.2.6zm20.6-1.4c.2-.8.4-1.5.6-2.2.3-1 .7-2 1.1-3 .2-.6.6-.9 1.2-.8.5.2 1.1.2 1.6.1.6-.1 1 .3.8.9-.2.4-.3.9-.4 1.3l-1.2 4.5c-.2.6-.4 1.2-.5 1.9 1.1.4 3.6.6 4.6.3.1 0 .2-.2.3-.3.2-.5.4-1 .5-1.5.9-3 1.3-6 1.2-9.1-.1-1.5-.5-2.8-1.4-3.9-.9-1.1-2-1.9-3.5-1.4-1.3.4-2.4 1.3-3.3 2.3-.8.8-1.1 2-1.4 3.1-.6 2.3-.9 4.7-.4 7 0 .3.1.5.2.8zm-62.3 2.5c.3-.1.4-.1.4-.2 1.5-.8 3-1.6 4.2-2.9.7-.8 1.5-1.5 1.9-2.5.4-1 .9-1.9.9-3 0-.9-.5-1.5-1.3-1.7-1.3-.3-3.1.5-3.7 1.6-.6 1.1-1.2 2.3-1.4 3.5-.3 1.7-.7 3.4-1 5.2zM279 2.3c-.2.4-.3.7-.4 1-.4 1.6-.9 3.1-.9 4.8 0 1.3-.1 2.6-.2 3.9 0 .3.1.7.1 1-.1 1.4-.4 2.8-.5 4.2-.1 1.5-.2 3.1-.3 4.6-.2 1.6-.4 3.1-.6 4.7-.1 1.1-.2 2.2-.3 3.4.5-1.3.9-2.5 1.2-3.8.5-2 .9-4.1 1.3-6.2.2-1 .2-2.1.3-3.1.3-2.2.6-4.4.8-6.6.1-1.7.1-3.5 0-5.2 0-1 0-1.8-.5-2.7zM289.4 33c.1 0 .1 0 .2-.1.2-.6.4-1.3.6-1.9.4-1.2 1-2.3 1.3-3.5.4-1.4.6-2.8.9-4.3.1-.5 0-1.1 0-1.6-.1-.4-.3-.8-.8-.9-.5-.1-.8.2-1 .7-.3.8-.7 1.6-.9 2.4-.7 2.4-.7 4.8-.7 7.2-.1.7.2 1.3.4 2zm21.2 14.9c.1 0 .2.1.3.1.8-.7 1.7-1.4 2.4-2.2.6-.7 1.1-1.5 1.7-2.2.3-.5.7-1 1.1-1.5h-4.5c-.2.9-.4 1.9-.5 2.9-.3 1-.4 2-.5 2.9zM152.7 44.9c1-1 2.1-1.3 3.3-1.4 2.6-.2 5.1.2 7.5 1 5.7 2 9.2 6.2 11.6 11.4 1 2.1.9 4.4.5 6.6-1.2 6.2-5 10.1-10.9 12.2-5.2 1.9-10.6 1.9-16 1.4-2.8-.3-5.5-1.1-8-2.3-3.4-1.7-5-4.6-5.9-8.1-.6-2.6 0-5.2.4-7.8.4-2.8 1.6-5.2 3.1-7.6 2.1-3.5 4.9-6.2 8.4-8.2 2.2-1.3 4.4-2.5 6.6-3.7 1.3-.7 2.5-1.6 3.8-2.3 1.3-.6 2.6-1.1 4-1.6 2.5-1.1 5-2.2 7.6-3.2 3.1-1.1 6.3-2 9.5-3 1.4-.5 2.8-1 4.3-1.6 3.4-1.4 6.9-2.8 10.3-4.2.7-.3 1.3-.6 1.9-.9 2.4-1.2 4-3.2 4.6-5.7.3-1.2.3-2.6-.5-3.8-.4-.5-.5-1.2-.6-1.8 0-.2.1-.5.2-.6.2-.1.5-.1.7.1.4.3.8.6 1.1 1 2.1 2.8 2.7 5.2.8 7.9-1.3 1.8-3 3.2-5 4.2-.8.4-1.6.9-2.4 1.3-2.6 1.6-5.4 2.6-8.2 3.5-1.2.4-2.5.6-3.5 1.3-1.5 1-3.3 1.2-4.9 1.8-5.8 2.1-11.5 4.2-17.3 6.3-1.6.6-3.2 1.5-4.7 2.4-2.4 1.4-4.7 2.9-6.9 4.4-1.6 1.1-3.2 2.2-4.6 3.5-2.4 2.1-3.9 4.8-4.9 7.8-.9 2.9-1.6 5.9-1.4 8.9.2 2.8 1.3 5.1 3.6 6.6 3.2 2.1 6.7 3.1 10.6 3 2.9-.1 5.6-.4 8.1-1.9 1.4-.9 2.7-2 3.8-3.2 2.8-3 4.6-6.6 4.5-10.8 0-3.1-.8-6-2.9-8.3-2.4-2.7-5.6-3.7-9.1-3.5-1.4.2-2.3-.2-3.1-1.1zM150.5 29.8c-.4-.3-.7-.5-1-.8l-5.7-4.8c-1.8-1.6-2.6-3.7-3.2-6-.7-2.8-.9-5.6.2-8.4 1.3-3.3 3.4-5.9 6.8-7.3 2.5-1 5-2 7.7-2 3.6-.1 6.9 1 9.8 3.3 2 1.6 3.4 3.7 4.7 5.9 1.4 2.3 1 4.9 0 7.3-.2.6-1.4 1.2-1.6.9-.3-.5-.4-1.2-.3-1.7.1-.7.5-1.4.6-2.1.2-1.9-.5-3.5-1.6-5-1.2-1.7-2.4-3.4-4.2-4.5-2.7-1.6-6.7-1.8-9.4.6-2.4 2.1-4.3 4.4-5 7.6-1 4.8-.6 9.3 3.1 13.1 1.1 1.1 2.4 2.2 3.6 3.2.9.8.9 1.5-.1 2-1.1.6-2.4 1-3.6 1.5-2.4 1-4.9 1.9-7.3 2.9-.7.3-1.4.7-2 1.1l-6.6 4.5c-3 2-5.2 5-7.7 7.5-3.6 3.7-5.6 8.2-7.3 12.9l-.3.6c-.3.5-.8.5-1 0-.2-.5-.5-1.1-.3-1.6 1.1-4.1 2.7-8.1 5.5-11.4 3.2-3.8 6.4-7.7 10.7-10.3 3.9-2.4 7.9-4.6 11.8-6.8.9-.5 1.7-1 2.6-1.5.4-.2.7-.4 1.1-.7zM216.2 57.9c-.8 0-1.6.1-2.5.1-.5 0-.8-.4-.7-.9 0-.3.1-.5.1-.8 0-1.4.1-6.5.1-7.8 0-1-.1-2.1-.2-3.1 0-.7.1-1.5.1-2.2-.1-3.3-.2-6.5-.2-9.8 0-1.4.1-2.9.2-4.3v-2-6.9c0-1.6-.1-3.2-.2-4.7 0-1-.1-1.9-.1-2.9 0-.5.1-1.1.1-1.6.1-2.5.1-5 .2-7.5 0-.3.1-.3.3-.5.9-.6 1.9-.4 2.9-.5.1 0 .4.3.4.5 0 .3-.1.7-.1 1 0 .9.1 1.8.1 2.8 0 .3-.1.5-.1.8v.9c0 1.1.1 2.2.1 3.3 0 1-.1 1.9-.1 2.9 0 2.3.1 4.5.1 6.8 0 1.8.1 3.6 0 5.3-.1 1 .1 2.1 0 3.1v3.8h.1c.1-.2.1-.3.2-.5.2-1.5.1-3 .5-4.4.4-1.6.5-3.2.9-4.8.4-1.5.7-3 1.4-4.5.8-1.6 1.3-3.4 2-5 .4-1 .8-2.1 1.4-3.1.6-1.1 1.5-2 2.2-3.1.8-1.1 1.9-1.8 3-2.5 1.9-1.3 4.1-1.9 6.4-1.4.3.1.7.2.9.3 2.4 1.4 4.5 3.2 5.8 5.8.2.5.4 1 .6 1.4.8 1.4.8 3 1 4.6.3 2.4.2 4.8.1 7.1 0 1.3-.4 2.5-.7 3.7-.4 1.2-1 2.4-1.5 3.6-.2.5-.4 1-.8 1.4-.8 1-1.4 2.1-2.5 2.8-.2.1-.3.2-.4.4-.5.9-1.4 1.3-2.2 1.8-.4.3-1 .4-1.5.5-.4.1-.9.2-1.3.4-2.2.6-4.3.5-6.2-.9-.7-.6-1.4-1.3-2-1.9-.1-.1-.2-.3-.2-.5-.3-.6-.6-1.1-.8-1.7l-.6-2.1c-.5-1.5-.3-3.1-.3-4.7 0-.2.3-.6.5-.6.4 0 .6.3.5.7-.1.5-.2 1-.2 1.4 0 .5.1.9.2 1.4.2 1 .4 2.1.6 3.1.5 1.7 1.4 3.2 3 4.1.3.2.7.3 1.1.3.8 0 1.7 0 2.5-.1 1.5-.2 2.5-1 3.5-2.1.2-.3.5-.5.7-.8l1.2-1.5c.5-.8 1-1.7 1.6-2.5.8-1.3 1.1-2.7 1.4-4.1.3-.9.5-1.9.5-2.9 0-1.5-.1-2.9-.1-4.4 0-.7-.1-1.4-.1-2-.1-1.2-.6-2.4-1-3.6-.4-1.3-1-2.5-1.7-3.7-.5-.9-1.2-1.7-1.9-2.4-1.2-1.1-2.6-1.2-4-.6-1.9.9-3.7 2-5 3.8-.4.6-.9 1.2-1.3 1.8-.9 1.2-1.3 2.6-1.9 4-.8 2.1-1.7 4.2-2.4 6.3-.5 1.4-.6 3-.9 4.5-.2 1.1-.5 2.2-.6 3.3-.2 1.6-.4 3.2-.5 4.8-.3 2.8-.6 5.6-.8 8.4-.1.6-.1 1.3-.1 1.9-.1 2.3-.2 8.4-.4 10.7 0 .3 0 .7-.1 1 0 .2 0 .3-.1.4-.1.3-.3.6-.4.9.1-.2.2-.1.2 0zM10.7 34.8c-.6.2-1.3.4-1.9.7-.7.3-1.5.5-2.1.9-2.3 1.3-3.7 3.1-4.5 5.3-.7 1.9-1 3.8-.8 5.8.2 2.5.7 4.9 1.5 7.3.1.3.3.7.5 1 .3.5.5 1 .9 1.5.7.9 1.5 1.8 2.4 2.6.8.8 1.7 1.4 2.6 2.1 2.7 1.8 5.7 2.3 9 1.7 2.2-.4 3.4-1.6 4-3.3.5-1.3.5-2.7.9-4 .5-1.7.3-3.4.6-5.1.4-1.8.1-3.7.5-5.5.4-2 .4-4.1.4-6.2 0-2.6.2-5.3.2-7.9.1-5 .1-9.9.1-14.9 0-2.9.1-7.1.1-10 0-1.2.1-2.4.2-3.6 0-.4-.1-.5-.5-.4-1 .1-2.1.2-3.1.4-1.5.3-3 .6-4.5 1-.2-.9-.2-1 .8-1.3 2.3-.7 4.5-1.3 7-1.2 1.3.1 2.6.2 3.8.3 2.1.2 4.1 0 6.1-.5.9-.2 1.8-.5 2.7-.8.6.8.4 1.4-.7 1.7-2 .5-4 .9-6.1.9V6c0 2.2-.1 5.6-.1 7.8-.1 3.8-.2 7.5-.2 11.3v8.7c0 1.2-.2 2.3-.3 3.5v.5c-.2 1.4-.2 2.8-.3 4.2 0 .2 0 .5-.1.7-.1.5-.2 1.1-.2 1.6 0 .3-.1.7-.1 1v1.4c0 .4.1.9 0 1.3 0 .3-.2.6-.2 1-.1 1.1-.1 2.3-.3 3.4-.1.8-.4 1.6-.6 2.4 0 .1-.1.3-.1.4-.1 1-.2 2.1-.4 3.1-.3 1.7-1 3.3-2.3 4.6-1.4 1.3-3.3 2-5.4 2.3-3.6.5-7.1.1-10.3-1.4-2.3-1.1-4.3-2.5-5.8-4.4-1-1.2-1.9-2.3-2.4-3.7C1.1 54 .4 52.3.3 50.5.1 48.8 0 47 0 45.3.1 43.1.6 41 1.7 39c.7-1.4 1.8-2.5 3.3-3.3 1.4-.7 2.7-1.6 4.3-2 .7-.1.8-.2 1 .4.1.2.2.4.4.7z"/></svg>